<svg xmlns="http://www.w3.org/2000/svg" viewBox="0 0 512 512"><path fill="#32bcad" d="M127.3 358l-52.6-52.6c-24-24-24-62.8 0-86.8l52.6-52.6c7.8-7.8 20.5-7.8 28.3 0l100.5 100.5-100.5 100.5c-7.8 7.8-20.5 7.8-28.3-9zm309.8-139.4l-52.6-52.6c-7.8-7.8-20.5-7.8-28.3 0L255.7 266.5l100.5 100.5c7.8 7.8 20.5 7.8 28.3 0l52.6-52.6c24.1-24 24.1-62.9 0-86.8zM241.6 142.1l-14.2-14.2c-7.8-7.8-20.5-7.8-28.3 0l-52.6 52.6c-7.8 7.8-7.8 20.5 0 28.3l14.2 14.2c7.8 7.8 20.5 7.8 28.3 0l52.6-52.6c7.8-7.8 7.8-20.5 0-28.3zm0 242l-14.2 14.2c-7.8 7.8-20.5 7.8-28.3 0l-52.6-52.6c-7.8-7.8-7.8-20.5 0-28.3l14.2-14.2c7.8-7.8 20.5-7.8 28.3 0l52.6 52.6c7.8 7.8 7.8 20.4 0 28.3z"/></svg>